#define close_width 15
#define close_height 15
static unsigned char close_bits[] = {
   0xe0, 0x03, 0xf8, 0x0f, 0xfc, 0x1f, 0xfe, 0x3f, 0xce, 0x39, 0x8f, 0x78,
   0x1f, 0x7c, 0x3f, 0x7e, 0x1f, 0x7c, 0x8f, 0x78, 0xce, 0x39, 0xfe, 0x3f,
   0xfc, 0x1f, 0xf8, 0x0f, 0xe0, 0x03 };
