#define desk_toggled_hover_width 15
#define desk_toggled_hover_height 15
static unsigned char desk_toggled_hover_bits[] = {
   0xe0, 0x03, 0xf8, 0x0f, 0x3c, 0x1e, 0x0e, 0x38, 0x06, 0x30, 0x07, 0x70,
   0x83, 0x60, 0xc3, 0x61, 0x83, 0x60, 0x07, 0x70, 0x06, 0x30, 0x0e, 0x38,
   0x3c, 0x1e, 0xf8, 0x0f, 0xe0, 0x03 };
