#define max_toggled_hover_width 15
#define max_toggled_hover_height 15
static unsigned char max_toggled_hover_bits[] = {
   0xe0, 0x03, 0xf8, 0x0f, 0xfc, 0x1f, 0x3e, 0x3e, 0x1e, 0x3c, 0x8f, 0x78,
   0xc7, 0x71, 0xe7, 0x73, 0xc7, 0x71, 0x8f, 0x78, 0x1e, 0x3c, 0x3e, 0x3e,
   0xfc, 0x1f, 0xf8, 0x0f, 0xe0, 0x03 };
