#define max_hover_width 15
#define max_hover_height 15
static unsigned char max_hover_bits[] = {
   0xe0, 0x03, 0xf8, 0x0f, 0xfc, 0x1f, 0xfe, 0x3f, 0x7e, 0x3f, 0x3f, 0x7e,
   0x1f, 0x7c, 0x8f, 0x78, 0xc7, 0x71, 0xe7, 0x73, 0xfe, 0x3f, 0xfe, 0x3f,
   0xfc, 0x1f, 0xf8, 0x0f, 0xe0, 0x03 };
