#define max_toggled_width 15
#define max_toggled_height 15
static unsigned char max_toggled_bits[] = {
   0x00, 0x00, 0x00, 0x00, 0x00, 0x00, 0xc0, 0x01, 0xe0, 0x03, 0x70, 0x07,
   0x38, 0x0e, 0x18, 0x0c, 0x38, 0x0e, 0x70, 0x07, 0xe0, 0x03, 0xc0, 0x01,
   0x00, 0x00, 0x00, 0x00, 0x00, 0x00 };
