#define shade_toggled_width 17
#define shade_toggled_height 17
static unsigned char shade_toggled_bits[] = {
   0x00, 0x00, 0x00, 0x00, 0x00, 0x00, 0x00, 0x00, 0x00, 0x00, 0x00, 0x00,
   0xf0, 0x1f, 0x00, 0xf0, 0x1f, 0x00, 0x00, 0x00, 0x00, 0x30, 0x18, 0x00,
   0x70, 0x1c, 0x00, 0xe0, 0x0e, 0x00, 0xc0, 0x07, 0x00, 0x80, 0x03, 0x00,
   0x00, 0x01, 0x00, 0x00, 0x00, 0x00, 0x00, 0x00, 0x00, 0x00, 0x00, 0x00,
   0x00, 0x00, 0x00 };
